<mxfile
  host="Electron" 
  agent="Mozilla/5.0 (Macintosh; Intel Mac OS X 10_15_7) AppleWebKit/537.36 (KHTML, like Gecko) draw.io/25.0.2 Chrome/128.0.6613.186 Electron/32.2.5 Safari/537.36" 
  version="25.0.2"
  >
  <diagram
    name="-"
    >
    <mxGraphModel
      grid="1" 
      gridSize="10" 
      guides="1" 
      tooltips="1" 
      connect="1" 
      arrows="1" 
      fold="1" 
      page="1" 
      pageScale="1" 
      pageWidth="1" 
      pageHeight="1" 
      math="0" 
      shadow="0"
      >
      <root>
        <mxCell
          id="page"
          />
        <mxCell
          id="root" 
          parent="page"
          />
        <mxCell
          style="verticalAlign=top;aspect=fixed;align=center;spacingLeft=5;spacingRight=5;spacingBottom=5;strokeColor=none;" 
          id="shape_" 
          parent="root" 
          value=" " 
          vertex="1"
          >
          <mxGeometry
            as="geometry" 
            width="58" 
            height="62" 
            x="0" 
            y="0"
            />
          </mxCell>
        <mxCell
          style="sketch=0;html=1;verticalAlign=top;labelPosition=center;verticalLabelPosition=bottom;align=center;spacingTop=-6;fontSize=11;fontStyle=1;fontColor=#999999;shape=image;aspect=fixed;imageAspect=0;image=data:image/svg+xml,PHN2ZyB4bWxucz0iaHR0cDovL3d3dy53My5vcmcvMjAwMC9zdmciIHhtbG5zOnY9Imh0dHBzOi8vdmVjdGEuaW8vbmFubyIgd2lkdGg9IjE3Ljk1Njk3Nzg0NDIzODI4IiBoZWlnaHQ9IjIwLjAwOTI1NjM2MjkxNTA0IiB2aWV3Qm94PSItMC4wMDA0MjE5NjUxMTY0MDIxMzQzIDAuMDAwMDc0Njk5NTIxMDY0NzU4MyAxNy45NTY5Nzc4NDQyMzgyOCAyMC4wMDkyNTYzNjI5MTUwNCI+JiN4YTsJPHN0eWxlPiYjeGE7CQkuc3Qwe2ZpbGw6IzY2OWRmNjt9JiN4YTsJCS5zdDF7ZmlsbDojYWVjYmZhO30mI3hhOwkJLnN0MntmaWxsOiM0Mjg1ZjQ7fSYjeGE7CTwvc3R5bGU+JiN4YTsJPGcgZmlsbC1ydWxlPSJldmVub2RkIj4mI3hhOwkJPHBhdGggZD0iTTEzLjE5NiA0LjQ0N2wtNC4yMi0yLjUxYTIuODYgMi44NiAwIDAgMS0xLjI1LTEuNzFjMCAwIC4xNi0uMzIuMzgtLjJsNS4yNSAzLjFjLjYzLjM3LjI0IDIgLjI0IDJhLjc3Ljc3IDAgMCAwLS40LS42OHoiIGNsYXNzPSJzdDAiLz4mI3hhOwkJPHBhdGggZD0iTTE0LjQ2NiAxMC42ODdhLjM1LjM1IDAgMCAxLS4xNi4zM2wtMSAuNjh2LTcuOTVjMC0uMjcuMTctLjU2LS4wNi0uN2wuOTIuNjhhLjczLjczIDAgMCAxIC4zNS42NXoiIGNsYXNzPSJzdDEiLz4mI3hhOwkJPHBhdGggZD0iTTguOTc2IDExLjU5N2EuMzYuMzYgMCAwIDEtLjItLjA2bC0zLjQ2LTIuMDZ2LjlsMy42NiAyLjE4LjI5LS41N3MtLjIyLS4zOS0uMjktLjM5em0uMiAxLjhhLjM2LjM2IDAgMCAxLS40IDBsLTMuNDYtMi4wNnYuNjZhLjQyLjQyIDAgMCAwIC4xOS4zNWwzLjI4IDJhLjM3LjM3IDAgMCAwIC4zOCAwIDIgMiAwIDAgMCAuMi0uNTJsLS4xOS0uMzl6IiBjbGFzcz0ic3QwIi8+JiN4YTsJCTxwYXRoIGQ9Ik04Ljk3NiAxMC43MjdsMy42Ni0yLjE4di0uNDNhLjM5LjM5IDAgMCAwLS4xOS0uMzRsLTMuMjgtMmEuMzcuMzcgMCAwIDAtLjM4IDBsLTMuMjggMmEuNDEuNDEgMCAwIDAtLjE5LjM0di40M3oiIGNsYXNzPSJzdDEiLz4mI3hhOwkJPHBhdGggZD0iTTguOTc2IDkuODI3bC0zLjQ3LTIuMDVhLjQxLjQxIDAgMCAwLS4xOS4zNHYuNDNsMy42NiAyLjE4LjI4LS41NnoiIGNsYXNzPSJzdDAiLz4mI3hhOwkJPGcgY2xhc3M9InN0MiI+JiN4YTsJCQk8cGF0aCBkPSJNOC45NzYgMTEuNTk3djFsMy42Ni0yLjE4di0uOWwtMy40NiAyLjAyYS42NS42NSAwIDAgMS0uMi4wNnptLjIgMS44YS4zNi4zNiAwIDAgMS0uMi4wNnYuOWEuNS41IDAgMCAwIC4yMS0uMDVsMy4yOC0yYS4zOS4zOSAwIDAgMCAuMTktLjM1di0uNjZ6Ii8+JiN4YTsJCQk8cGF0aCBkPSJNMTIuNDQ2IDcuNzc3bC0zLjQ3IDIuMDV2LjlsMy42Ni0yLjE4di0uNDNhLjM5LjM5IDAgMCAwLS4xOS0uMzR6Ii8+JiN4YTsJCTwvZz4mI3hhOwkJPHBhdGggZD0iTTQuNzU2IDE1LjUyN2w0LjE1IDIuNDdhMi43MiAyLjcyIDAgMCAxIDEuMjggMS44LjE4LjE4IDAgMCAxLS4yOC4xOGwtNS40NS0zLjIzYy0uNTMtLjMyLS4wNy0xLjg4LS4wNy0xLjg4YS43Ny43NyAwIDAgMCAuMzcuNjZ6IiBjbGFzcz0ic3QwIi8+JiN4YTsJCTxwYXRoIGQ9Ik0zLjQ4NiAxNS43Mjd2LTYuNTZhLjQxLjQxIDAgMCAxIC4xOS0uMzNsMS0uNTl2Ny45MWMwIC4yNyAwIC42OS4yMS44M2wtMS4wNi0uNjZhLjc1Ljc1IDAgMCAxLS4zNC0uNnoiIGNsYXNzPSJzdDEiLz4mI3hhOwkJPHBhdGggZD0iTTcuMTM2IDMuNDU3YS43NS43NSAwIDAgMC0uNzQgMGwtNC4yIDIuNTRhMi42MyAyLjYzIDAgMCAxLTIuMDguMjYuMjMuMjMgMCAwIDEgMC0uNGMuMTgtLjA5IDYuMzItMy43NCA2LjMyLTMuNzQuMjMtLjE0Ljc0IDEuMzkuNzQgMS4zOXoiIGNsYXNzPSJzdDAiLz4mI3hhOwkJPHBhdGggZD0iTTcuMTI2IDIuMDc3bDUuMzIgMy4xNWEuMzcuMzcgMCAwIDEgLjIuMzF2MS4xOGwtNi42Ny0zLjk2YS43NS43NSAwIDAgMC0uNzQgMGwxLjE4LS42OWEuNzEuNzEgMCAwIDEgLjczIDB6IiBjbGFzcz0ic3QxIi8+JiN4YTsJCTxwYXRoIGQ9Ik0xMC43OTYgMTYuNDg3YS43My43MyAwIDAgMCAuNzQgMGw0LjItMi40OWEyLjYzIDIuNjMgMCAwIDEgMi4xLS4yNS4yMS4yMSAwIDAgMSAwIC4zOGwtNi4zMyAzLjc1Yy0uMjIuMTQtLjc0LTEuNC0uNzQtMS40eiIgY2xhc3M9InN0MCIvPiYjeGE7CQk8cGF0aCBkPSJNNS40ODYgMTQuNzQ3YS41Ni41NiAwIDAgMS0uMTctLjMzdi0xLjE2bDYuNjYgMy45M2EuNjkuNjkgMCAwIDAgLjczIDBsLTEuMTguN2EuNy43IDAgMCAxLS43NCAweiIgY2xhc3M9InN0MSIvPiYjeGE7CQk8cGF0aCBkPSJNMy4yMzYgNy44MDdhLjc2Ljc2IDAgMCAwLS4zNy42NXY1YTIuNzUgMi43NSAwIDAgMS0uODcgMiAuMTguMTggMCAwIDEtLjMtLjEzdi03LjU2YzAtLjI4IDEuNTQgMCAxLjU0IDB6IiBjbGFzcz0ic3QwIi8+JiN4YTsJCTxwYXRoIGQ9Ik02Ljc0NiA0LjUxN2EuMzQuMzQgMCAwIDEgLjM2IDBsMSAuNTktNi4wOCAzLjU2YS43Ny43NyAwIDAgMC0uMzcuNjZ2LTEuMzlhLjcyLjcyIDAgMCAxIC4zOC0uNjR6IiBjbGFzcz0ic3QxIi8+JiN4YTsJCTxwYXRoIGQ9Ik0xNS4xNDYgMTEuNDM3di01YTIuODEgMi44MSAwIDAgMSAuODQtMmMwIDAgLjMzLS4xMS4zMS4yMXMwIDcuMzcgMCA3LjM3Yy0uMzEuMzctMS42MSAwLTEuNjEgMGEuODEuODEgMCAwIDAgLjQ2LS41OHoiIGNsYXNzPSJzdDAiLz4mI3hhOwkJPHBhdGggZD0iTTE1Ljk3NiAxMi42MDdsLTQuNzQgMi44NWEuMzUuMzUgMCAwIDEtLjM3IDBsLTEtLjU3IDYuMTEtMy42N2EuNzcuNzcgMCAwIDAgLjM3LS42NnYxLjQ0Yy0uMDIuMjMtLjM3LjYxLS4zNy42MXoiIGNsYXNzPSJzdDEiLz4mI3hhOwk8L2c+JiN4YTs8L3N2Zz4;strokeColor=none;" 
          id="cloud_bigtable_" 
          parent="shape_" 
          value=" " 
          vertex="1"
          >
          <mxGeometry
            width="38" 
            height="42" 
            as="geometry" 
            x="10" 
            y="10"
            />
          </mxCell>
        </root>
      </mxGraphModel>
    </diagram>
  </mxfile>